# xmcd CD database file
#
# Track frame offsets:
#	150
#	32487
#	70245
#	89020
#	111290
#	143435
#	163057
#
# Disc length: 2431 seconds
#
# Revision: 0
# Processed by: cddbd v1.5.1PL0 Copyright (c) Steve Scherf et al.
# Submitted via: CDex 1.51
#
DISCID=59097d07
DTITLE=Naked Navy - Scream Of The Hounded
DYEAR=1995
DGENRE=Jazz
TTITLE0=Get Up!
TTITLE1=Naked Navy
TTITLE2=You Can Find It
TTITLE3=Favela!
TTITLE4=Neues Vom Chef
TTITLE5=Frau Mit Schreibmaschine Auf Tanzfläche
TTITLE6=Let's Have A Drink
EXTD=YEAR: 1995
EXTT0=
EXTT1=
EXTT2=
EXTT3=
EXTT4=
EXTT5=
EXTT6=
PLAYORDER=
